PathFileType	4	(X/Y/Z)	/Users/niels/Desktop/University/Third Semester/Perception and Action/Exam/Gymnastics Motion Tracking/Code for Gym Tracking/Analyzed Data/Webcam_Backflip/id8_2_baseline_Sports2D/id8_2_baseline_Sports2D_px_person00.trc
DataRate	CameraRate	NumFrames	NumMarkers	Units	OrigDataRate	OrigDataStartFrame	OrigNumFrames
29.81132075471698	29.81132075471698	7	22	m	29.81132075471698	59	159
Frame#	Time	Hip			RHip			RKnee			RAnkle			RBigToe			RSmallToe			RHeel			LHip			LKnee			LAnkle			LBigToe			LSmallToe			LHeel			Neck			Head			Nose			RShoulder			RElbow			RWrist			LShoulder			LElbow			LWrist		
		X1	Y1	Z1	X2	Y2	Z2	X3	Y3	Z3	X4	Y4	Z4	X5	Y5	Z5	X6	Y6	Z6	X7	Y7	Z7	X8	Y8	Z8	X9	Y9	Z9	X10	Y10	Z10	X11	Y11	Z11	X12	Y12	Z12	X13	Y13	Z13	X14	Y14	Z14	X15	Y15	Z15	X16	Y16	Z16	X17	Y17	Z17	X18	Y18	Z18	X19	Y19	Z19	X20	Y20	Z20	X21	Y21	Z21	X22	Y22	Z22
59	1.9791139240506328	0.9294310505324631	-0.430973984273435	0.0	0.9266136426814056	-0.43097088016770174	0.0	0.9210031663294036	-0.5462072662148403	0.0	0.8652707022469189	-0.6182363404504541	0.0	0.8855816135641881	-0.6582671656864058	0.0	0.8760485234530182	-0.6571201765354089	0.0	0.8513097456534645	-0.62075996456567	0.0	0.9314568351877085	-0.4326238570914959	0.0	0.9193302486398217	-0.5434208696156888	0.0	0.8663205053066356	-0.615553261329037	0.0	0.8846783030633528	-0.6538897091894565	0.0	0.8824182907330212	-0.6484856964413744	0.0	0.8561849534542003	-0.6179857391220968	0.0	1.0528647978172503	-0.4157070984861829	0.0	1.1151821804438848	-0.4059706651036724	0.0	1.0917459150137534	-0.4283554815757984	0.0	1.0370073728140916	-0.4169242622319591	0.0	1.016580484281752	-0.4548468481291997	0.0	1.023462927373645	-0.5088898069884004	0.0	1.0435531780687897	-0.41402102311171446	0.0	1.034113492867325	-0.46051065221087584	0.0	1.0473208902848743	-0.5028669401156627	0.0
60	2.0126582278481013	0.9266107046413667	-0.47703856709944475	0.0	0.9247446649637455	-0.47661521266523005	0.0	0.9256762511014921	-0.5891761127741699	0.0	0.8847136601970286	-0.6801941696779582	0.0	0.9128138271616774	-0.7145242374006413	0.0	0.9022412390875562	-0.7158917771364276	0.0	0.8703809562477849	-0.6875304579772483	0.0	0.9282109253297175	-0.4776716335057344	0.0	0.923064265903259	-0.587506444543883	0.0	0.8822582484898899	-0.6758100680497253	0.0	0.9122899013324162	-0.7108634316949274	0.0	0.9059630941849363	-0.7058738431994742	0.0	0.8695849129973383	-0.6830179871049475	0.0	1.042906854799645	-0.4283480062804653	0.0	1.1035740118215613	-0.40589333380213033	0.0	1.0838128266418645	-0.43206637235231066	0.0	1.0278422439916242	-0.43287234417123016	0.0	1.02777493932209	-0.4681914207894519	0.0	1.0474810873086071	-0.5108937730530944	0.0	1.034331467126871	-0.4288481260387281	0.0	1.0435206999912492	-0.4704770040466412	0.0	1.0691182249734779	-0.5020391507778099	0.0
61	2.0462025316455694	0.9264907459528189	-0.5253277778144839	0.0	0.92514693057074	-0.5245933089031329	0.0	0.9319810236625782	-0.6335764359598346	0.0	0.9021235651248755	-0.7338978268790702	0.0	0.9343758267534524	-0.762519167156447	0.0	0.9231867920496359	-0.7658069033999851	0.0	0.8879066653045841	-0.7444995150143984	0.0	0.9280548904333022	-0.5251204172545652	0.0	0.9297157680865854	-0.6324373062599117	0.0	0.8988245455832725	-0.7287324367379208	0.0	0.9353150486895294	-0.759101707233543	0.0	0.9270298269072771	-0.7549286387576556	0.0	0.8849318519002175	-0.7391378698462884	0.0	1.029518397862119	-0.4472136072701799	0.0	1.0856712283165446	-0.4126394551450261	0.0	1.0702753799372173	-0.4417854710622996	0.0	1.01580503130119	-0.4546554905246653	0.0	1.0352250263983795	-0.4793970422002895	0.0	1.0665170744331551	-0.5041429573936684	0.0	1.0224398013427456	-0.4497837397031948	0.0	1.0477437616627459	-0.4780487150677339	0.0	1.0825715861972087	-0.49393932941558005	0.0
62	2.079746835443038	0.9282694452457805	-0.5722183053374957	0.0	0.9270112493924018	-0.5712945125794994	0.0	0.9400439755112089	-0.6760168097285466	0.0	0.9149483610219906	-0.7774388928924864	0.0	0.9485732983057462	-0.8016745805183728	0.0	0.9369812811099065	-0.8061779884645645	0.0	0.90094394227749	-0.7894955394108891	0.0	0.9301211424858528	-0.5713616453668974	0.0	0.9389378386005722	-0.6749579284871826	0.0	0.912633979542971	-0.772226091511689	0.0	0.9509197697745065	-0.7979593761186059	0.0	0.9425427373014512	-0.7948407027898284	0.0	0.8982261060094292	-0.7840410637115665	0.0	1.014571833111315	-0.4708685155252178	0.0	1.0638656856059268	-0.42573681657378903	0.0	1.053093758729703	-0.45701148237976846	0.0	1.0025652802237683	-0.4803850667152008	0.0	1.03778585772873	-0.4889003962004238	0.0	1.0765004282635164	-0.49200278724175633	0.0	1.0092257205163568	-0.47492120196061255	0.0	1.0458703077375304	-0.48435429714070455	0.0	1.085417050900583	-0.48220347638443906	0.0
63	2.113291139240506	0.9308608879900343	-0.6136335713553341	0.0	0.9294025702581781	-0.6126715737549271	0.0	0.949478483611643	-0.7124864324335511	0.0	0.9227226326803236	-0.8093410148930662	0.0	0.9561732322664079	-0.8308625425295667	0.0	0.9442198954091631	-0.8359099224283097	0.0	0.908866400696948	-0.8211975515190342	0.0	0.9330704459956581	-0.6122496744499916	0.0	0.9497261067324527	-0.7112362762368242	0.0	0.9220832597708069	-0.8045156486236974	0.0	0.9588032800281896	-0.8265249312977562	0.0	0.9515964813078954	-0.8245872894526205	0.0	0.9074471857978924	-0.816096526414002	0.0	1.0000499237331846	-0.4963035114351553	0.0	1.0414549156450543	-0.44298341622705245	0.0	1.0350121859363983	-0.4755997495088097	0.0	0.9899284094054922	-0.5066458620139835	0.0	1.0353010716415332	-0.4967847582965533	0.0	1.0760110987702054	-0.4783694644020605	0.0	0.9961494923110402	-0.5008487542351666	0.0	1.038530378326757	-0.49014830744026805	0.0	1.078252554963268	-0.4702612316983814	0.0
64	2.1468354430379746	0.9332159515132008	-0.6457791928164849	0.0	0.9314799181721756	-0.6449221990995259	0.0	0.9596632939255735	-0.7392429560188323	0.0	0.9265103995354725	-0.8287040084975542	0.0	0.9591510047186894	-0.8488766816626968	0.0	0.9469110410455354	-0.8538992921255266	0.0	0.9128166013986836	-0.839218983657668	0.0	0.9356018497262129	-0.6439212341864267	0.0	0.9608712133603599	-0.7377347530630041	0.0	0.9273341216608254	-0.8244376329350378	0.0	0.9603298095521909	-0.8440570250630121	0.0	0.954921931424675	-0.8433860319153793	0.0	0.9126582326843343	-0.8346006866824343	0.0	0.9875292988471349	-0.5194346259169224	0.0	1.0218813879147595	-0.46056323227133594	0.0	1.0188528377991533	-0.49393228685119944	0.0	0.9793462744867091	-0.5292698092104047	0.0	1.0289717520496966	-0.5025797934489206	0.0	1.067116001991381	-0.4661045236103594	0.0	0.9844681549664055	-0.523452410310832	0.0	1.0276829251106048	-0.49529470299643574	0.0	1.064187001377178	-0.46021913388068847	0.0
65	2.180379746835443	0.9346619455119551	-0.6659028420115797	0.0	0.9327192802071747	-0.6652694464341913	0.0	0.9699817298350579	-0.753644104653307	0.0	0.9279168636345185	-0.8353876905170781	0.0	0.959523788060394	-0.8552085823858372	0.0	0.9472317322526108	-0.8597756521317022	0.0	0.914495259064849	-0.8441379193340677	0.0	0.9369734867000262	-0.6635897814428499	0.0	0.9714871072271298	-0.7519186272601005	0.0	0.9296063828985917	-0.8316514344784907	0.0	0.9577461865976157	-0.8504379483727058	0.0	0.954230420840616	-0.8510057300174789	0.0	0.9150733719488493	-0.8399158459158882	0.0	0.9777670793792076	-0.5361611873107857	0.0	1.0074484776946429	-0.4741549524148766	0.0	1.0064229680205317	-0.5078918688147276	0.0	0.9714547874628234	-0.5445516121745282	0.0	1.0210237328271552	-0.5051898856019603	0.0	1.0543478334589074	-0.45593892592621404	0.0	0.9748810028465116	-0.5389646608642807	0.0	1.0159935707040266	-0.4985133133815258	0.0	1.0477832984829798	-0.4522022417254496	0.0
